<?xml version="1.0" encoding="utf-8"?>
<!-- Generator: Adobe Illustrator 16.0.0, SVG Export Plug-In . SVG Version: 6.00 Build 0)  -->
<!DOCTYPE svg PUBLIC "-//W3C//DTD SVG 1.1//EN" "http://www.w3.org/Graphics/SVG/1.1/DTD/svg11.dtd">
<svg version="1.1" id="Layer_1" xmlns="http://www.w3.org/2000/svg" xmlns:xlink="http://www.w3.org/1999/xlink" x="0px" y="0px"
	 width="41px" height="41px" viewBox="0 0 41 41" style="enable-background:new 0 0 41 41;" xml:space="preserve">
<style type="text/css">
<![CDATA[
	.st0{fill:none;stroke:#FFFFFF;stroke-miterlimit:10;}
	.st1{opacity:0.3;}
	.st2{fill:#FFFFFF;}
]]>
</style>
<g>
	<g class="st1">
		<g>
			<circle class="st0" cx="20.5" cy="20.5" r="20"/>
		</g>
	</g>
	<path class="st2" d="M32.242,13.631c-0.816,0.36-1.691,0.605-2.611,0.715c0.938-0.563,1.658-1.455,1.998-2.514
		c-0.877,0.521-1.85,0.898-2.885,1.102c-0.83-0.882-2.012-1.436-3.316-1.436c-2.512,0-4.545,2.036-4.545,4.545
		c0,0.355,0.039,0.702,0.117,1.036c-3.778-0.188-7.125-1.997-9.367-4.75c-0.392,0.674-0.614,1.455-0.614,2.286
		c0,1.578,0.802,2.966,2.02,3.782c-0.743-0.022-1.445-0.226-2.058-0.568v0.057c0,2.203,1.567,4.039,3.645,4.456
		c-0.381,0.105-0.782,0.16-1.197,0.16c-0.292,0-0.576-0.028-0.854-0.08c0.577,1.807,2.256,3.117,4.246,3.156
		c-1.556,1.219-3.515,1.944-5.646,1.944c-0.367,0-0.728-0.021-1.083-0.063c2.011,1.288,4.4,2.042,6.966,2.042
		c8.359,0,12.929-6.926,12.929-12.93c0-0.198-0.002-0.393-0.014-0.589C30.861,15.342,31.631,14.542,32.242,13.631"/>
</g>
</svg>
