<?xml version="1.0" encoding="utf-8"?>
<!-- Generator: Adobe Illustrator 16.0.0, SVG Export Plug-In . SVG Version: 6.00 Build 0)  -->
<!DOCTYPE svg PUBLIC "-//W3C//DTD SVG 1.1//EN" "http://www.w3.org/Graphics/SVG/1.1/DTD/svg11.dtd">
<svg version="1.1" id="Layer_1" xmlns="http://www.w3.org/2000/svg" xmlns:xlink="http://www.w3.org/1999/xlink" x="0px" y="0px"
	 width="41px" height="41px" viewBox="0 0 41 41" style="enable-background:new 0 0 41 41;" xml:space="preserve">
<style type="text/css">
<![CDATA[
	.st0{fill:none;stroke:#FFFFFF;stroke-miterlimit:10;}
	.st1{opacity:0.3;}
	.st2{fill-rule:evenodd;clip-rule:evenodd;fill:#FFFFFF;}
]]>
</style>
<g>
	<g class="st1">
		<g>
			<circle class="st0" cx="20.5" cy="20.5" r="20"/>
		</g>
	</g>
	<path class="st2" d="M20.5,7.81c-6.989,0-12.657,5.666-12.657,12.657c0,5.591,3.626,10.334,8.658,12.01
		c0.632,0.115,0.863-0.275,0.863-0.61c0-0.302-0.011-1.097-0.017-2.153c-3.521,0.766-4.264-1.696-4.264-1.696
		c-0.574-1.462-1.405-1.853-1.405-1.853c-1.149-0.785,0.087-0.768,0.087-0.768c1.27,0.089,1.938,1.305,1.938,1.305
		c1.129,1.934,2.961,1.374,3.684,1.051c0.115-0.818,0.441-1.377,0.803-1.691c-2.812-0.32-5.765-1.406-5.765-6.256
		c0-1.381,0.493-2.511,1.303-3.397c-0.131-0.319-0.566-1.605,0.124-3.349c0,0,1.062-0.34,3.479,1.298
		c1.01-0.282,2.093-0.42,3.171-0.428c1.074,0.007,2.156,0.146,3.167,0.428c2.416-1.639,3.478-1.298,3.478-1.298
		c0.691,1.744,0.256,3.03,0.125,3.349c0.812,0.886,1.302,2.016,1.302,3.397c0,4.862-2.96,5.932-5.778,6.245
		c0.453,0.393,0.857,1.164,0.857,2.345c0,1.692-0.015,3.058-0.015,3.473c0,0.339,0.229,0.731,0.871,0.608
		c5.023-1.678,8.648-6.418,8.648-12.008C33.157,13.476,27.489,7.81,20.5,7.81"/>
</g>
</svg>
