<svg version="1.1" id="Nots" xmlns="http://www.w3.org/2000/svg" xmlns:xlink="http://www.w3.org/1999/xlink" x="0px" y="0px"
	 width="40px" height="40px" viewBox="0 0 40 40" enable-background="new 0 0 40 40" xml:space="preserve">
<g>
	<path opacity="0.75" fill="#112126" d="M32.505,19.498c-1.594,0.439-2.5,2.115-2.5,3.002V25c0,2.205-1.794,4-4,4h-3v-2h3
		c1.103,0,2-0.897,2-2v-1.969c0-2,1.185-2.793,2.026-3.533c-0.843-0.742-2.026-1.467-2.026-3.498v-2c0-1.103-0.897-2-2-2h-3v-2h3
		c2.206,0,4,1.795,4,4v2.5C30.005,17.381,30.911,19.031,32.505,19.498z M10,22.499V25c0,2.205,1.794,4,4,4h3v-2h-3
		c-1.103,0-2-0.898-2-2v-2c0-2.031-1.184-2.756-2.026-3.498C10.814,18.762,12,17.968,12,15.968V14c0-1.104,0.897-2,2-2h3v-2h-3
		c-2.205,0-4,1.794-4,4v2.5c0,0.887-0.906,2.563-2.5,3.001C9.094,19.969,10,21.618,10,22.499z"/>
</g>
</svg>
