<svg version="1.1" id="Nots" xmlns="http://www.w3.org/2000/svg" xmlns:xlink="http://www.w3.org/1999/xlink" x="0px" y="0px"
	 width="40px" height="40px" viewBox="0 0 40 40" enable-background="new 0 0 40 40" xml:space="preserve">
<path d="M19.947,7C12.795,7,6.999,12.799,7,19.951c0,5.57,3.565,10.518,8.85,12.279c0.322,0.154,0.709,0.018,0.862-0.305
	c0.047-0.098,0.067-0.207,0.063-0.314c0-0.306,0-1.118,0-2.201c-3.599,0.787-4.366-1.738-4.366-1.738
	c-0.245-0.766-0.753-1.421-1.434-1.852c-1.175-0.803,0.093-0.785,0.093-0.785c0.802,0.123,1.508,0.598,1.925,1.297
	c0.745,1.331,2.428,1.811,3.763,1.072c0.062-0.658,0.353-1.271,0.823-1.731c-2.875-0.323-5.9-1.433-5.9-6.399
	c-0.018-1.289,0.464-2.535,1.341-3.479c-0.398-1.117-0.353-2.346,0.13-3.431c0,0,1.092-0.352,3.562,1.331
	c2.119-0.579,4.355-0.579,6.474,0c2.47-1.674,3.561-1.331,3.561-1.331c0.482,1.085,0.529,2.313,0.131,3.431
	c0.876,0.944,1.353,2.191,1.33,3.479c0,4.977-3.023,6.067-5.909,6.391c0.641,0.627,0.979,1.501,0.925,2.396c0,1.73,0,3.127,0,3.552
	c-0.019,0.357,0.254,0.662,0.611,0.683c0.109,0.005,0.216-0.017,0.314-0.063c6.783-2.262,10.448-9.596,8.184-16.381
	C30.557,10.528,25.556,6.955,19.947,7z"/>
</svg>
