<svg version="1.1" id="Layer_1" xmlns="http://www.w3.org/2000/svg" xmlns:xlink="http://www.w3.org/1999/xlink" x="0px" y="0px"
	 width="40px" height="40px" viewBox="0 0 40 40" style="enable-background:new 0 0 40 40;" xml:space="preserve">
<style type="text/css">
<![CDATA[
	.st0{opacity:0.75;fill:#112126;}
]]>
</style>
<path class="st0" d="M32,15.088c0,0-6.021-1.395-6.25-1.441c-0.227-0.048-0.563-1.209-0.768-1.834
	c-0.336-1.023-1.383-1.75-2.482-1.75h-5c-1.1,0-2.146,0.727-2.482,1.75c-0.205,0.625-0.542,1.786-0.769,1.834
	C14.021,13.693,8,15.088,8,15.088v12.85c0,1.1,0.9,2,2,2h20c1.1,0,2-0.9,2-2V15.088z M20.022,27.1c-3.095,0-5.602-2.507-5.602-5.599
	c0-3.094,2.507-5.601,5.602-5.601c3.092,0,5.598,2.507,5.598,5.601C25.62,24.593,23.114,27.1,20.022,27.1z M23.414,21.501
	c0,1.873-1.519,3.393-3.392,3.393c-1.877,0-3.395-1.52-3.395-3.393c0-1.875,1.518-3.395,3.395-3.395
	C21.896,18.106,23.414,19.626,23.414,21.501z"/>
</svg>
