<?xml version="1.0" encoding="utf-8"?>
<!-- Generator: Adobe Illustrator 16.0.0, SVG Export Plug-In . SVG Version: 6.00 Build 0)  -->
<!DOCTYPE svg PUBLIC "-//W3C//DTD SVG 1.1//EN" "http://www.w3.org/Graphics/SVG/1.1/DTD/svg11.dtd">
<svg version="1.1" id="Layer_1" xmlns="http://www.w3.org/2000/svg" xmlns:xlink="http://www.w3.org/1999/xlink" x="0px" y="0px"
	 width="124px" height="34px" viewBox="0 0 124 34" style="enable-background:new 0 0 124 34;" xml:space="preserve">
<style type="text/css">
<![CDATA[
	.st0{fill:#E70AA7;}
	.st1{fill:#FFAB00;}
	.st2{fill:#FFFFFF;}
	.st3{fill:#3399FF;}
	.st4{fill:#45E79C;}
]]>
</style>
<g>
	<path class="st2" d="M45.028,10.755h2.27l4.733,7.214c0.458,0.738,1.038,1.935,1.038,1.935h0.035c0,0-0.124-1.196-0.124-1.935
		v-7.214h2.252v12.491H52.98l-4.732-7.195c-0.475-0.74-1.038-1.935-1.038-1.935h-0.035c0,0,0.123,1.194,0.123,1.935v7.195h-2.27
		V10.755z"/>
	<path class="st2" d="M65.373,10.543c3.783,0,6.457,2.798,6.457,6.37c0,3.677-2.674,6.544-6.457,6.544
		c-3.782,0-6.457-2.867-6.457-6.544C58.916,13.341,61.591,10.543,65.373,10.543z M65.373,21.382c2.393,0,4.117-1.936,4.117-4.469
		c0-2.429-1.725-4.294-4.117-4.294s-4.117,1.865-4.117,4.294C61.256,19.446,62.98,21.382,65.373,21.382z"/>
	<path class="st2" d="M77.92,12.707h-4.1v-1.952h10.451v1.952h-4.1v10.539H77.92V12.707z"/>
	<path class="st2" d="M87.807,20.044c0.738,0.669,1.935,1.319,3.097,1.319c1.126,0,1.829-0.58,1.829-1.424
		c0-2.375-5.824-1.883-5.824-5.771c0-2.199,1.83-3.625,4.258-3.625c1.303,0,2.675,0.441,3.66,1.338l-1.003,1.848
		c-0.687-0.616-1.759-1.09-2.745-1.09c-1.143,0-1.899,0.561-1.899,1.424c0,2.322,5.823,1.725,5.823,5.701
		c0,2.022-1.478,3.693-4.152,3.693c-1.549,0-3.148-0.58-4.275-1.706L87.807,20.044z"/>
	<path class="st2" d="M104.962,10.755h2.271v12.491h-2.271V10.755z"/>
	<path class="st2" d="M117.331,10.543c3.782,0,6.457,2.798,6.457,6.37c0,3.677-2.675,6.544-6.457,6.544s-6.458-2.867-6.458-6.544
		C110.873,13.341,113.549,10.543,117.331,10.543z M117.331,21.382c2.393,0,4.116-1.936,4.116-4.469c0-2.429-1.724-4.294-4.116-4.294
		c-2.394,0-4.117,1.865-4.117,4.294C113.214,19.446,114.938,21.382,117.331,21.382z"/>
	<circle class="st2" cx="99.671" cy="22.122" r="1.335"/>
</g>
<g>
	<path class="st4" d="M6.278,17.947l0.002-0.002l3.625-3.625l0-0.001l3.625-3.624l3.625-3.626l3.787-3.788
		c0.522-0.521,0.522-1.367,0-1.889c-0.522-0.522-1.368-0.522-1.89,0l-3.787,3.786l-3.626,3.626l-3.623,3.624
		c0,0.001-0.001,0.001-0.001,0.001L4.39,16.056l-0.001,0.001l-3.785,3.785c-0.522,0.523-0.522,1.369,0,1.891
		c0.26,0.262,0.603,0.391,0.945,0.391s0.684-0.129,0.944-0.391L6.278,17.947z"/>
	<path class="st4" d="M20.943,3.281c0.522-0.521,0.522-1.367,0-1.889c-0.522-0.522-1.368-0.522-1.89,0L0.604,19.842
		c-0.522,0.523-0.522,1.369,0,1.891c0.26,0.262,0.603,0.391,0.945,0.391s0.684-0.129,0.944-0.391L20.943,3.281z"/>
	<path class="st3" d="M26.172,5.305c0.522-0.523,0.522-1.369,0-1.891c-0.522-0.521-1.368-0.521-1.889,0L2.625,25.071
		c-0.522,0.522-0.522,1.368,0,1.89c0.261,0.261,0.603,0.393,0.946,0.393c0.341,0,0.683-0.132,0.944-0.393L26.172,5.305z"/>
	<path class="st0" d="M29.799,8.93c0.521-0.521,0.521-1.369,0-1.891c-0.523-0.521-1.368-0.521-1.891,0L6.25,28.697
		c-0.522,0.521-0.522,1.367,0,1.89c0.262,0.261,0.603,0.392,0.946,0.392c0.341,0,0.684-0.131,0.945-0.392L29.799,8.93z"/>
	<path class="st1" d="M31.82,14.158c0.522-0.521,0.522-1.367,0-1.889c-0.523-0.522-1.369-0.522-1.89,0L11.48,30.719
		c-0.522,0.521-0.522,1.369,0,1.89C11.741,32.87,12.083,33,12.424,33c0.343,0,0.684-0.13,0.945-0.392L31.82,14.158z"/>
	<path class="st1" d="M31.82,19.843l-0.58-0.579c-0.521-0.522-1.368-0.522-1.89-0.002c-0.522,0.523-0.522,1.369-0.001,1.891
		l0.58,0.58c0.261,0.261,0.604,0.392,0.946,0.392s0.683-0.131,0.944-0.392C32.343,21.211,32.343,20.365,31.82,19.843"/>
	<path class="st1" d="M12.059,3.861c0.261,0.261,0.603,0.393,0.946,0.393c0.341,0,0.683-0.132,0.944-0.393
		c0.522-0.521,0.522-1.368,0-1.889l-0.579-0.58c-0.522-0.523-1.368-0.523-1.89,0c-0.521,0.521-0.521,1.367,0,1.891L12.059,3.861z"/>
	<path class="st0" d="M27.615,22.889c-0.522-0.521-1.368-0.521-1.89,0c-0.522,0.521-0.522,1.369,0,1.889l2.183,2.184
		c0.261,0.262,0.603,0.393,0.945,0.393c0.342,0,0.684-0.131,0.946-0.393c0.521-0.521,0.521-1.368,0-1.889L27.615,22.889z"/>
	<path class="st0" d="M8.434,7.486c0.26,0.262,0.603,0.393,0.945,0.393s0.684-0.131,0.944-0.393c0.523-0.521,0.523-1.368,0-1.889
		L8.141,3.414c-0.522-0.521-1.368-0.521-1.891,0c-0.522,0.521-0.522,1.369,0,1.89L8.434,7.486z"/>
	<path class="st3" d="M23.99,26.514c-0.522-0.521-1.368-0.521-1.89,0c-0.523,0.521-0.523,1.369,0,1.891l2.182,2.184
		c0.261,0.26,0.604,0.391,0.946,0.391c0.342,0,0.683-0.131,0.945-0.391c0.522-0.523,0.522-1.369,0-1.891L23.99,26.514z"/>
	<path class="st3" d="M4.809,11.113c0.261,0.261,0.603,0.391,0.945,0.391c0.342,0,0.684-0.13,0.944-0.391
		c0.522-0.523,0.522-1.369,0-1.891L4.515,7.039C3.993,6.519,3.146,6.518,2.625,7.04c-0.522,0.521-0.522,1.368,0,1.89L4.809,11.113z"
		/>
	<path class="st4" d="M1.184,14.738c0.261,0.26,0.603,0.391,0.945,0.391s0.684-0.131,0.944-0.391c0.523-0.522,0.523-1.369,0-1.89
		l-0.58-0.579c-0.522-0.523-1.368-0.523-1.889,0c-0.522,0.521-0.522,1.367,0,1.889L1.184,14.738z"/>
	<path class="st4" d="M20.364,30.14c-0.521-0.521-1.367-0.521-1.889,0c-0.523,0.521-0.523,1.368,0,1.89l0.58,0.579
		C19.315,32.869,19.656,33,19.998,33c0.343,0,0.685-0.131,0.946-0.392c0.522-0.521,0.522-1.368,0-1.89L20.364,30.14z"/>
</g>
</svg>
