<svg xmlns="http://www.w3.org/2000/svg" viewBox="0 0 48 48"><defs><style>.a{fill:#dc4e41;}</style></defs><title>Nots</title><path class="a" d="M16.64,36.91a12.91,12.91,0,1,1,8.76-22.41l-3.65,4a7.47,7.47,0,1,0,.43,10.81,6.33,6.33,0,0,0,1.47-2.58h-7V21.31H29.12l0.16,2.52a12,12,0,0,1-3.18,9.12A13,13,0,0,1,16.64,36.91Z"/><polygon class="a" points="44.28 21.31 39.79 21.31 39.79 16.82 36.53 16.82 36.53 21.31 32.05 21.31 32.05 24.57 36.53 24.57 36.53 29.05 39.79 29.05 39.79 24.57 44.28 24.57 44.28 21.31"/></svg>