<svg xmlns="http://www.w3.org/2000/svg" viewBox="0 0 104 104"><defs><style>.a{fill:#e8eef2;}.b{fill:#fff;}.c,.d{fill:#cfdae2;}.d{opacity:0;}</style></defs><title>Nots</title><path class="a" d="M26.38,101.5a5,5,0,0,1-5-5V29.59L38.21,12.75H87.38a5,5,0,0,1,5,5V101.5h-66Z"/><path class="b" d="M87.38,13.75a4,4,0,0,1,4,4V100.5h-65a4,4,0,0,1-4-4V30L38.63,13.75H87.38m0-2H37.8l-0.59.59L21,28.59l-0.59.59V96.5a6,6,0,0,0,6,6h67V17.75a6,6,0,0,0-6-6h0Z"/><path class="a" d="M21.38,96.5a5,5,0,0,1-5-5V24.59L33.21,7.75H82.38a5,5,0,0,1,5,5V96.5h-66Z"/><path class="b" d="M82.38,8.75a4,4,0,0,1,4,4V95.5h-65a4,4,0,0,1-4-4V25L33.63,8.75H82.38m0-2H32.8l-0.59.59L16,23.59l-0.59.59V91.5a6,6,0,0,0,6,6h67V12.75a6,6,0,0,0-6-6h0Z"/><path class="a" d="M16.63,91.25a5,5,0,0,1-5-5V24.2A11.06,11.06,0,0,1,15.25,16L27,5.36A11,11,0,0,1,34.41,2.5H77.63a5,5,0,0,1,5,5V91.25h-66Z"/><path class="b" d="M77.63,3.5a4,4,0,0,1,4,4V90.25h-65a4,4,0,0,1-4-4V24.2a10,10,0,0,1,3.29-7.43L27.66,6.1a10,10,0,0,1,6.75-2.6H77.63m0-2H34.41a12,12,0,0,0-8.09,3.12L14.57,15.28a12.06,12.06,0,0,0-3.95,8.91V86.25a6,6,0,0,0,6,6h67V7.5a6,6,0,0,0-6-6h0Z"/><path class="b" d="M19.63,83.25V15.38L24.5,10.5H74.63V83.25h-55Z"/><path class="a" d="M30.5,5.38l-4.42,3-8.27,7.39L14.5,21.38H27.41a3.09,3.09,0,0,0,3.09-3.09V5.38Z"/><rect class="a" x="29" y="37.88" width="37" height="3"/><rect class="a" x="29" y="65.88" width="27.87" height="3"/><rect class="a" x="29" y="58.88" width="37" height="3"/><rect class="a" x="29" y="51.88" width="37" height="3"/><rect class="a" x="29" y="44.88" width="37" height="3"/><rect class="c" x="38.13" y="26.38" width="18.75" height="4"/><rect class="d" width="104" height="104"/></svg>