<svg version="1.1" id="Nots" xmlns="http://www.w3.org/2000/svg" xmlns:xlink="http://www.w3.org/1999/xlink" x="0px" y="0px"
	 width="40px" height="40px" viewBox="0 0 40 40" enable-background="new 0 0 40 40" xml:space="preserve">
<path opacity="0.15" fill="#112126" d="M15.026,30c-1.342,0-2.605-0.522-3.554-1.473c-1.959-1.96-1.959-5.147,0-7.107l2.496-2.496
	c1.04-1.041,2.853-1.039,3.893,0l-1.415,1.414c-0.284-0.286-0.78-0.285-1.063,0l-2.496,2.496c-1.18,1.18-1.18,3.1,0,4.279
	c1.144,1.144,3.137,1.144,4.28,0l2.496-2.495c0.293-0.294,0.293-0.771,0-1.064l1.414-1.414c1.073,1.073,1.073,2.819,0,3.893
	l-2.496,2.495C17.631,29.478,16.369,30,15.026,30z"/>
<path opacity="0.15" fill="#112126" d="M24.086,21.883c-0.735,0-1.426-0.287-1.946-0.807l1.415-1.414
	c0.283,0.285,0.779,0.284,1.063,0l2.496-2.496c1.18-1.18,1.18-3.1,0-4.279c-1.144-1.146-3.138-1.145-4.28,0l-2.496,2.495
	c-0.293,0.294-0.293,0.771,0,1.064l-1.414,1.414c-1.073-1.073-1.073-2.819,0-3.893l2.496-2.495C22.369,10.522,23.631,10,24.974,10
	c1.342,0,2.605,0.522,3.554,1.473c1.959,1.96,1.959,5.147,0,7.107l-2.496,2.496C25.512,21.597,24.821,21.883,24.086,21.883z"/>
<rect x="19" y="13.704" transform="matrix(0.7071 0.7071 -0.7071 0.7071 20 -8.2843)" opacity="0.15" fill="#112126" width="2" height="12.593"/>
</svg>
