<svg id="Layer_1" data-name="Layer 1" xmlns="http://www.w3.org/2000/svg" viewBox="0 0 8 20"><defs><style>.cls-1{fill:#112126;opacity:0.1;}.cls-2{fill:#fff;}</style></defs><title>Untitled-2</title><path class="cls-1" d="M5.9,8.971a1.15,1.15,0,0,1,0,2.058A10.731,10.731,0,0,0,0,20H1a9.674,9.674,0,0,1,5.345-8.077,2.15,2.15,0,0,0,0-3.847A9.674,9.674,0,0,1,1,0H0A10.731,10.731,0,0,0,5.9,8.971Z"/><path class="cls-2" d="M0,0A10.731,10.731,0,0,0,5.9,8.971a1.15,1.15,0,0,1,0,2.058A10.731,10.731,0,0,0,0,20V0Z"/></svg>