<svg xmlns="http://www.w3.org/2000/svg" viewBox="0 0 192 72"><defs><style>.a{fill:#e8eef2;}.b{fill:#cfdae2;}.c{fill:#fff;}.d{fill:#ffda8f;}.e{fill:#ffab00;}</style></defs><title>Nots</title><rect class="a" x="136" y="8" width="48" height="48" rx="8" ry="8"/><path class="b" d="M184,23.12V19a8,8,0,0,0-8-8H144a8,8,0,0,0-8,8v4.12a2.75,2.75,0,0,0,1.13,2.22L160,42l22.87-16.66A2.75,2.75,0,0,0,184,23.12Z"/><path class="c" d="M184,16h0a8,8,0,0,0-8-8H144a8,8,0,0,0-8,8h0a5,5,0,0,0,2,4l22,16,22-16A5,5,0,0,0,184,16Z"/><path class="c" d="M112,8H80a8,8,0,0,0-8,8V63.46a2.69,2.69,0,0,0,4.13,2.28L91.55,56H112a8,8,0,0,0,8-8V16A8,8,0,0,0,112,8Z"/><circle class="b" cx="85.41" cy="32" r="3.53"/><circle class="b" cx="96" cy="32" r="3.53"/><circle class="b" cx="106.59" cy="32" r="3.53"/><path class="b" d="M72,63.46h0a2.69,2.69,0,0,0,4.13,2.28L91.55,56H79.46A7.46,7.46,0,0,0,72,63.46Z"/><path class="d" d="M48,56.23H16a8,8,0,0,1-8-8V24L24,8H48a8,8,0,0,1,8,8V48.23A8,8,0,0,1,48,56.23Z"/><path class="e" d="M8,24h8a8,8,0,0,0,8-8V8Z"/><rect class="e" x="24" y="23.62" width="16" height="3"/><rect class="e" x="20" y="30.62" width="24" height="3"/><rect class="e" x="24" y="37.62" width="16" height="3"/></svg>