<svg xmlns="http://www.w3.org/2000/svg" viewBox="0 0 104 104"><defs><style>.a,.d{fill:#cfdae2;}.a{opacity:0;}.b{fill:#e8eef2;}.c{fill:#fff;}</style></defs><title>Nots</title><rect class="a" width="104" height="104"/><path class="b" d="M17.75,92.38a5,5,0,0,1-5-5V38.21L29.59,21.38H96.5a5,5,0,0,1,5,5v66H17.75Z"/><path class="c" d="M96.5,22.38a4,4,0,0,1,4,4v65H17.75a4,4,0,0,1-4-4V38.63L30,22.38H96.5m0-2H29.17L28.59,21,12.34,37.21l-0.59.59V87.38a6,6,0,0,0,6,6H102.5v-67a6,6,0,0,0-6-6h0Z"/><path class="b" d="M12.75,87.38a5,5,0,0,1-5-5V33.21L24.59,16.38H91.5a5,5,0,0,1,5,5v66H12.75Z"/><path class="c" d="M91.5,17.38a4,4,0,0,1,4,4v65H12.75a4,4,0,0,1-4-4V33.63L25,17.38H91.5m0-2H24.17L23.59,16,7.34,32.21l-0.59.59V82.38a6,6,0,0,0,6,6H97.5v-67a6,6,0,0,0-6-6h0Z"/><path class="b" d="M7.5,82.63a5,5,0,0,1-5-5v-61a5,5,0,0,1,5-5H86.25a5,5,0,0,1,5,5v66H7.5Z"/><path class="c" d="M86.25,12.63a4,4,0,0,1,4,4v65H7.5a4,4,0,0,1-4-4v-61a4,4,0,0,1,4-4H86.25m0-2H7.5a6,6,0,0,0-6,6v61a6,6,0,0,0,6,6H92.25v-67a6,6,0,0,0-6-6h0Z"/><rect class="c" x="19.38" y="10.75" width="55" height="72.75" transform="translate(-0.25 94) rotate(-90)"/><circle class="d" cx="50.83" cy="37.3" r="5.53"/><polygon class="b" points="83.25 74.63 60.48 51.87 51.77 60.59 38.47 47.29 10.5 74.63 53.9 78.63 83.25 74.63"/><polygon class="d" points="10.5 74.63 30.48 74.63 38.47 47.29 10.5 74.63"/><polygon class="d" points="56.36 65.18 60.48 51.87 51.77 60.59 56.36 65.18"/></svg>