<svg xmlns="http://www.w3.org/2000/svg" viewBox="0 0 40 40"><defs><style>.a{opacity:1;}.b{fill:#3399ff;}.c{fill:#3399ff;}</style></defs><title>Nots</title><g class="a"><rect class="b" x="14" y="13" width="16" height="3"/><rect class="b" x="14" y="25" width="16" height="3"/><rect class="b" x="14" y="19" width="16" height="3"/><polygon class="c" points="9 11 9 12 10 12 10 16 11 16 11 11 9 11"/><polygon class="c" points="9 25 9 26 11 26 11 27 9 27 9 28 11 28 11 29 9 29 9 30 12 30 12 25 9 25"/><polygon class="c" points="9 18 9 19 11 19 11 20 9 20 9 23 12 23 12 22 10 22 10 21 12 21 12 18 9 18"/></g></svg>