<svg xmlns="http://www.w3.org/2000/svg" viewBox="0 0 48 48"><defs><style>.a{fill:#3cf;}</style></defs><title>Nots</title><path class="a" d="M39.08,14.65a12.44,12.44,0,0,1-3.55,1,6.21,6.21,0,0,0,2.72-3.42,12.35,12.35,0,0,1-3.93,1.5,6.19,6.19,0,0,0-10.54,5.64A17.55,17.55,0,0,1,11,12.88a6.2,6.2,0,0,0,1.91,8.26,6.12,6.12,0,0,1-2.8-.77v0.08a6.19,6.19,0,0,0,5,6.06,6.11,6.11,0,0,1-1.63.22,6.21,6.21,0,0,1-1.16-.11,6.19,6.19,0,0,0,5.78,4.3,12.42,12.42,0,0,1-7.68,2.65,12.61,12.61,0,0,1-1.47-.09,17.52,17.52,0,0,0,9.48,2.78c11.38,0,17.6-9.43,17.6-17.6,0-.27,0-0.54,0-0.8A12.62,12.62,0,0,0,39.08,14.65Z"/></svg>