<svg xmlns="http://www.w3.org/2000/svg" viewBox="0 0 28 28"><defs><style>.a{fill:#2d6483;opacity:0.07;}.b{fill:#112126;opacity:0.4;}</style></defs><title>Nots_28</title><path class="a" d="M24.01,28H3.99A3.99,3.99,0,0,1,0,24.01V7.981L7.981,0H24.01A3.99,3.99,0,0,1,28,3.99V24.01A3.99,3.99,0,0,1,24.01,28Z"/><path class="c" d="M0.133,24.989A3.988,3.988,0,0,0,4,28H24a3.988,3.988,0,0,0,3.867-3.011H0.133Z"/><path class="b" d="M21.11,8.716a2.5,2.5,0,1,0-3.94,2.038,6.777,6.777,0,0,1-3.158,2.682,15.624,15.624,0,0,0-1.991,1.239V11a2.5,2.5,0,1,0-2,0v9.939h2V18.6c0-1.7,1.068-2.369,2.957-3.411,1.567-.865,3.422-1.893,4.226-4.049A2.5,2.5,0,0,0,21.11,8.716Z"/></svg>