<svg version="1.1" id="Layer_1" xmlns="http://www.w3.org/2000/svg" xmlns:xlink="http://www.w3.org/1999/xlink" x="0px" y="0px"
	 width="9px" height="20px" viewBox="0 0 9 20" style="enable-background:new 0 0 9 20;" xml:space="preserve">
<style type="text/css">
<![CDATA[
	.st0{fill:#FFFFFF;}
	.st1{opacity:0.1;enable-background:new    ;}
]]>
</style>
	<path class="st1" d="M2.1,11.029c-0.567-0.283-0.799-0.975-0.516-1.543C1.695,9.264,1.877,9.082,2.1,8.971
		C4.291,7.87,5.993,6.071,7,3.918V0C6.791,3.455,4.753,6.535,1.654,8.078c-1.063,0.529-1.492,1.82-0.963,2.883
		c0.209,0.418,0.547,0.756,0.963,0.963C4.753,13.467,6.791,16.547,7,20v-3.918C5.993,13.929,4.291,12.13,2.1,11.029z"/>
	<path class="st0" d="M8,0C7.777,3.83,5.527,7.25,2.1,8.971C1.877,9.082,1.695,9.264,1.584,9.486
		c-0.283,0.568-0.052,1.26,0.516,1.543C5.527,12.75,7.777,16.17,8,20h1V0H8z"/>
</svg>
