<svg version="1.1" id="Layer_1" xmlns="http://www.w3.org/2000/svg" xmlns:xlink="http://www.w3.org/1999/xlink" x="0px" y="0px"
	 width="9px" height="20px" viewBox="-1 0 9 20" style="enable-background:new -1 0 9 20;" xml:space="preserve">
<style type="text/css">
<![CDATA[
	.st0{fill:#FFFFFF;}
	.st1{opacity:0.1;enable-background:new    ;}
]]>
</style>
	<path class="st1" d="M5.9,8.971c0.567,0.283,0.799,0.975,0.516,1.543c-0.111,0.223-0.293,0.404-0.516,0.516
		C3.709,12.13,2.007,13.929,1,16.082V20c0.209-3.455,2.247-6.535,5.346-8.078c1.063-0.529,1.492-1.82,0.963-2.883
		C7.1,8.621,6.762,8.283,6.346,8.076C3.247,6.533,1.209,3.453,1,0v3.918C2.007,6.071,3.709,7.87,5.9,8.971z"/>
	<path class="st0" d="M0,20c0.223-3.83,2.473-7.25,5.9-8.971c0.223-0.111,0.404-0.293,0.516-0.516
		C6.699,9.945,6.468,9.254,5.9,8.971C2.473,7.25,0.223,3.83,0,0h-1v20H0z"/>
</svg>
